<svg xmlns="http://www.w3.org/2000/svg" xmlns:xlink="http://www.w3.org/1999/xlink" width="180.999" height="74" viewBox="0 0 180.999 74">
  <defs>
    <linearGradient id="linear-gradient" y1="0.5" x2="1" y2="0.5" gradientUnits="objectBoundingBox">
      <stop offset="0" stop-color="#82762a"/>
      <stop offset="0.439" stop-color="#95812d"/>
      <stop offset="1" stop-color="#82762a"/>
    </linearGradient>
    <linearGradient id="linear-gradient-2" x1="0.318" y1="0.491" x2="0.785" y2="0.164" gradientUnits="objectBoundingBox">
      <stop offset="0.41" stop-color="#fff"/>
      <stop offset="0.668" stop-color="#646363"/>
      <stop offset="0.877" stop-color="#fff"/>
    </linearGradient>
    <linearGradient id="linear-gradient-3" y1="0.5" x2="1" y2="0.5" gradientUnits="objectBoundingBox">
      <stop offset="0" stop-color="#82762a"/>
      <stop offset="0.291" stop-color="#ada05b"/>
      <stop offset="0.529" stop-color="#ab9e59"/>
      <stop offset="1" stop-color="#82762a"/>
    </linearGradient>
    <radialGradient id="radial-gradient" cx="0.932" cy="-0.567" r="1.52" gradientTransform="translate(0.097) scale(0.806 1)" gradientUnits="objectBoundingBox">
      <stop offset="0" stop-color="#3a3a39"/>
      <stop offset="0.105" stop-color="#40403f"/>
      <stop offset="0.256" stop-color="#535353"/>
      <stop offset="0.436" stop-color="#737372"/>
      <stop offset="0.638" stop-color="#9e9e9e"/>
      <stop offset="0.854" stop-color="#d5d5d5"/>
      <stop offset="1" stop-color="#fff"/>
    </radialGradient>
    <radialGradient id="radial-gradient-2" cx="0.007" cy="1.203" r="0.717" gradientTransform="translate(-0.028) scale(1.056 1)" xlink:href="#radial-gradient"/>
  </defs>
  <g id="Group_3" data-name="Group 3" transform="translate(-3.576 -8.681)">
    <g id="Group_1" data-name="Group 1">
      <path id="Path_1" data-name="Path 1" d="M3.576,49.216c76.83-32.13,181-19.468,181-19.468s-120.819.131-181,19.468" fill="#8b7f36"/>
      <path id="Path_2" data-name="Path 2" d="M3.576,49.216c76.83-32.13,181-19.468,181-19.468s-120.819.131-181,19.468" fill="#8b7f36"/>
      <path id="Path_3" data-name="Path 3" d="M3.576,49.216c76.83-32.13,181-19.468,181-19.468s-120.819.131-181,19.468" fill="#8b7f36"/>
      <path id="Path_4" data-name="Path 4" d="M3.576,49.216c24.573-10.277,51.941-15.971,77.8-18.964a490.892,490.892,0,0,1,103.2-.5s-120.819.131-181,19.468" fill="url(#linear-gradient)"/>
      <path id="Path_5" data-name="Path 5" d="M18.032,65.8c.039,1.53.291,2.041.68,2.177a3.059,3.059,0,0,0,1.012.138c.213,0,.33.039.33.158,0,.156-.176.2-.448.2-1.264,0-2.042-.059-2.412-.059-.173,0-1.088.059-2.1.059-.254,0-.428-.02-.428-.2,0-.118.115-.158.31-.158a3.432,3.432,0,0,0,.876-.1c.5-.156.582-.726.6-2.431l.176-11.56c0-.392.059-.667.252-.667.213,0,.389.256.719.609.233.254,3.189,3.394,6.026,6.238,1.323,1.335,3.947,4.161,4.277,4.475h.1l-.2-8.81c-.017-1.2-.193-1.57-.66-1.768a3.191,3.191,0,0,0-1.03-.116c-.233,0-.311-.059-.311-.178,0-.158.213-.178.5-.178,1.012,0,1.944.059,2.353.059.215,0,.953-.059,1.9-.059.254,0,.448.02.448.178,0,.118-.117.178-.35.178a2.156,2.156,0,0,0-.582.057c-.545.158-.7.57-.721,1.669l-.213,12.381c0,.432-.078.608-.252.608-.216,0-.448-.215-.663-.43-1.223-1.177-3.712-3.749-5.735-5.768-2.118-2.12-4.275-4.515-4.627-4.888h-.057Z" fill="#0d2855"/>
      <path id="Path_6" data-name="Path 6" d="M38.465,60.676c0-2.533,0-3-.02-3.532-.039-.568-.193-.745-.739-.9a3.282,3.282,0,0,0-.68-.057c-.176,0-.291-.059-.291-.177s.135-.158.389-.158c.893,0,1.981.04,2.468.04.545,0,4.336.019,4.667,0,.31-.02.582-.077.719-.1a2,2,0,0,1,.272-.079c.1,0,.117.079.117.156a7.431,7.431,0,0,0-.137,1.081c-.019.175-.059.9-.1,1.1-.02.079-.059.274-.2.274-.117,0-.137-.079-.137-.215a1.572,1.572,0,0,0-.115-.609c-.137-.294-.274-.529-1.128-.607-.293-.04-2.333-.079-2.683-.079-.078,0-.117.059-.117.158v4.12c0,.1.02.176.117.176.389,0,2.6,0,2.994-.037a1.334,1.334,0,0,0,.817-.257c.135-.116.193-.215.272-.215a.158.158,0,0,1,.137.176c0,.1-.039.373-.137,1.217-.039.333-.078,1-.078,1.118,0,.138-.019.373-.173.373-.117,0-.156-.059-.156-.136-.02-.178-.02-.393-.059-.609-.1-.333-.311-.587-.952-.647-.31-.04-2.255-.079-2.683-.079-.078,0-.1.079-.1.178v1.333c0,.57-.019,1.982,0,2.473.039,1.138.565,1.392,2.314,1.392a4.6,4.6,0,0,0,1.614-.215c.428-.2.621-.55.739-1.236.039-.178.078-.255.193-.255.137,0,.156.215.156.393a11.572,11.572,0,0,1-.232,1.844c-.117.432-.274.432-.915.432-1.284,0-2.314-.019-3.15-.059-.836-.019-1.477-.039-1.983-.039-.193,0-.563.02-.971.02-.409.019-.836.039-1.186.039-.213,0-.33-.059-.33-.178,0-.076.059-.176.272-.176a2.481,2.481,0,0,0,.6-.059c.35-.079.445-.393.5-.884.078-.706.078-2.022.078-3.552Z" fill="#0d2855"/>
      <path id="Path_7" data-name="Path 7" d="M51.977,57.477c-.213-.607-.35-1-.6-1.158a1.382,1.382,0,0,0-.663-.138c-.174,0-.272-.059-.272-.176s.137-.158.389-.158c.875,0,1.827.039,1.983.039s.991-.039,1.983-.039c.252,0,.369.039.369.158s-.137.176-.313.176a1.081,1.081,0,0,0-.426.079c-.157.059-.176.158-.176.333a9.758,9.758,0,0,0,.369,1.531c.291,1.1,1.847,6.142,2.1,6.907h.057l3.267-8.536c.176-.469.35-.607.506-.607.193,0,.349.254.563.785l3.421,8.242h.059c.331-.963,1.634-5.357,2.236-7.3a3.616,3.616,0,0,0,.176-.963c0-.274-.156-.471-.836-.471-.156,0-.291-.079-.291-.176,0-.118.135-.158.409-.158.893,0,1.671.039,1.827.039.117,0,.856-.039,1.418-.039.2,0,.31.039.31.138,0,.116-.076.2-.232.2a2.181,2.181,0,0,0-.6.079c-.409.158-.6.785-.954,1.748-.8,2.1-2.546,7.4-3.383,9.888-.2.59-.291.785-.545.785-.233,0-.35-.195-.6-.8l-3.48-8.242h-.039c-.291.708-2.586,6.633-3.285,8.163-.313.689-.409.884-.663.884-.213,0-.31-.178-.465-.607Z" fill="#0d2855"/>
      <path id="Path_8" data-name="Path 8" d="M76.4,59.322c0-2.982,0-3.532-.039-4.159-.039-.669-.2-.983-.836-1.118a3.919,3.919,0,0,0-.758-.059c-.213,0-.331-.039-.331-.178s.137-.176.428-.176c1.03,0,2.255.057,2.644.057.952,0,1.71-.057,2.372-.057,3.519,0,4.141,1.9,4.141,2.942a4.28,4.28,0,0,1-1.983,3.434c1.595.55,3.539,1.943,3.539,4.238,0,2.1-1.614,4.278-5.192,4.278-.233,0-.8-.039-1.36-.059-.584-.039-1.166-.059-1.457-.059-.215,0-.643,0-1.108.02-.448,0-.954.039-1.343.039-.252,0-.389-.059-.389-.195,0-.1.078-.158.311-.158a3.117,3.117,0,0,0,.7-.079c.389-.077.487-.509.565-1.079.1-.824.1-2.374.1-4.179Zm2.333.333c0,.158.059.2.134.215a4.709,4.709,0,0,0,.915.059,1.953,1.953,0,0,0,1.4-.373,2.568,2.568,0,0,0,.8-2.079c0-1.315-.758-3.041-2.429-3.041a3.3,3.3,0,0,0-.643.037c-.135.039-.174.118-.174.335Zm2.565,1.57a2.782,2.782,0,0,0-1.614-.472c-.349-.019-.543-.019-.836-.019-.076,0-.115.039-.115.138v4.651c0,1.3.059,1.629.68,1.883a3.488,3.488,0,0,0,1.419.235A2.273,2.273,0,0,0,83.18,65.13a4.689,4.689,0,0,0-1.886-3.905" fill="#0d2855"/>
      <path id="Path_9" data-name="Path 9" d="M93.252,60.675c0-2.53,0-3-.02-3.53-.039-.57-.2-.748-.739-.9a3.093,3.093,0,0,0-.682-.059c-.174,0-.291-.059-.291-.178s.137-.156.389-.156c.9,0,1.983.039,2.333.039.582,0,2.138-.039,2.664-.039a5.959,5.959,0,0,1,3.248.706,2.924,2.924,0,0,1,1.2,2.3c0,1.237-.7,2.335-2.37,3.69,1.516,1.883,2.722,3.394,3.752,4.433a3.191,3.191,0,0,0,1.827,1.1,1.562,1.562,0,0,0,.408.04.2.2,0,0,1,.213.178c0,.136-.115.175-.33.175h-1.631a3.693,3.693,0,0,1-1.868-.333,7.763,7.763,0,0,1-2.331-2.454c-.682-.9-1.4-2.019-1.614-2.276a.4.4,0,0,0-.31-.116l-1.536-.039a.123.123,0,0,0-.137.136v.236c0,1.551.02,2.844.1,3.552.059.489.135.8.661.881a6.394,6.394,0,0,0,.836.059.2.2,0,0,1,.213.178c0,.116-.134.175-.349.175-.991,0-2.412-.059-2.664-.059-.33,0-1.418.059-2.1.059-.215,0-.332-.059-.332-.175,0-.079.059-.178.274-.178a2.476,2.476,0,0,0,.6-.059c.35-.079.448-.392.506-.881.078-.709.078-2.022.078-3.552Zm2.176,1.3c0,.178.039.235.156.294a4.62,4.62,0,0,0,1.3.158,1.714,1.714,0,0,0,1.206-.274A2.833,2.833,0,0,0,99.2,59.675c0-2.355-1.595-2.962-2.6-2.962a6.42,6.42,0,0,0-1.01.057c-.117.039-.156.1-.156.237Z" fill="#0d2855"/>
      <path id="Path_10" data-name="Path 10" d="M110.476,60.676c0-2.533,0-3-.02-3.532-.039-.568-.213-.765-.582-.884a2.241,2.241,0,0,0-.624-.077c-.174,0-.272-.039-.272-.2,0-.1.137-.138.408-.138.641,0,1.808.04,2.294.04.428,0,1.536-.04,2.2-.04.215,0,.35.04.35.138,0,.158-.1.2-.272.2a2.492,2.492,0,0,0-.506.057c-.467.079-.6.316-.641.9-.039.531-.039,1-.039,3.532v2.942c0,1.609,0,2.945.078,3.65.059.452.174.706.68.785a6.238,6.238,0,0,0,.876.059c.193,0,.272.1.272.176,0,.118-.137.178-.33.178-1.128,0-2.294-.059-2.761-.059-.389,0-1.556.059-2.236.059-.213,0-.33-.059-.33-.178,0-.076.059-.176.272-.176a2.481,2.481,0,0,0,.6-.059c.35-.079.445-.313.5-.8.078-.686.078-2.022.078-3.631Z" fill="#0d2855"/>
      <path id="Path_11" data-name="Path 11" d="M122.277,60.676c0-2.533,0-3-.02-3.532-.039-.57-.193-.746-.738-.9a3.127,3.127,0,0,0-.68-.059c-.176,0-.293-.057-.293-.176s.137-.158.391-.158c.893,0,1.981.039,2.468.039.526,0,1.749-.039,2.781-.039,2.138,0,5.016,0,6.882,1.9a5.869,5.869,0,0,1,1.614,4.238,6.5,6.5,0,0,1-1.866,4.651,7.943,7.943,0,0,1-5.737,1.962c-.621,0-1.36-.059-2.04-.1-.68-.059-1.3-.1-1.732-.1-.193,0-.562.02-.971.02-.409.019-.836.039-1.186.039-.213,0-.33-.059-.33-.178,0-.079.059-.176.272-.176a2.457,2.457,0,0,0,.6-.059c.352-.079.447-.393.506-.884.078-.706.078-2.022.078-3.552Zm2.294,1.844c0,1.765.019,3.041.039,3.375a3.094,3.094,0,0,0,.193,1.177c.215.313.9.667,2.238.667a5.354,5.354,0,0,0,3.732-1.138c1.108-.921,1.458-2.412,1.458-4.139a5.456,5.456,0,0,0-1.594-4.16,6.864,6.864,0,0,0-4.782-1.589,3.589,3.589,0,0,0-1.051.118.293.293,0,0,0-.213.333c-.019.567-.019,1.943-.019,3.256Z" fill="#0d2855"/>
      <path id="Path_12" data-name="Path 12" d="M152.761,67.347c0,.452,0,.471-.213.59a10.243,10.243,0,0,1-4.182.746c-4.2,0-7.912-1.923-7.912-6.536a6.178,6.178,0,0,1,2.994-5.453,8.5,8.5,0,0,1,4.607-1.081,19.248,19.248,0,0,1,3.033.276,13.455,13.455,0,0,0,1.362.176c.193.02.233.079.233.2a23.073,23.073,0,0,0-.115,2.747c0,.254-.1.373-.235.373-.117,0-.154-.079-.174-.217a2.225,2.225,0,0,0-.584-1.373,5.27,5.27,0,0,0-3.713-1.276,4.765,4.765,0,0,0-3.3.98,4.876,4.876,0,0,0-1.575,4.063c0,3.591,2.294,6.2,5.949,6.2a2.77,2.77,0,0,0,1.206-.177.551.551,0,0,0,.33-.588v-1.53c0-.825,0-1.452-.02-1.962-.02-.57-.193-.746-.739-.9a3.047,3.047,0,0,0-.66-.059c-.156,0-.274-.076-.274-.176,0-.138.137-.158.37-.158.895,0,2.12.039,2.626.039.543,0,1.438-.039,2-.039.235,0,.35.02.35.158a.2.2,0,0,1-.213.176,2.318,2.318,0,0,0-.467.059c-.465.079-.641.316-.66.9-.02.511-.02,1.177-.02,2Z" fill="#0d2855"/>
      <path id="Path_13" data-name="Path 13" d="M161.432,60.676c0-2.533,0-3-.02-3.532-.039-.568-.193-.745-.739-.9a3.281,3.281,0,0,0-.68-.057c-.176,0-.293-.059-.293-.177s.137-.158.389-.158c.9,0,1.983.04,2.47.04.545,0,4.336.019,4.667,0,.31-.02.582-.077.719-.1a2,2,0,0,1,.272-.079c.1,0,.117.079.117.156a7.432,7.432,0,0,0-.137,1.081c-.019.175-.059.9-.1,1.1-.018.079-.057.274-.193.274-.117,0-.137-.079-.137-.215a1.613,1.613,0,0,0-.115-.609c-.137-.294-.274-.529-1.127-.607-.293-.04-2.333-.079-2.683-.079-.078,0-.117.059-.117.158v4.12c0,.1.02.176.117.176.389,0,2.6,0,2.994-.037a1.335,1.335,0,0,0,.817-.257c.135-.116.193-.215.272-.215a.158.158,0,0,1,.137.176c0,.1-.039.373-.137,1.217-.039.333-.078,1-.078,1.118,0,.138-.019.373-.173.373-.117,0-.156-.059-.156-.136-.02-.178-.02-.393-.059-.609-.1-.333-.311-.587-.952-.647-.31-.04-2.257-.079-2.683-.079-.078,0-.1.079-.1.178v1.333c0,.57-.019,1.982,0,2.473.039,1.138.563,1.392,2.314,1.392a4.6,4.6,0,0,0,1.614-.215c.428-.2.621-.55.739-1.236.039-.178.078-.255.193-.255.137,0,.156.215.156.393a11.334,11.334,0,0,1-.234,1.844c-.115.432-.272.432-.913.432-1.284,0-2.314-.019-3.15-.059-.836-.019-1.477-.039-1.983-.039-.193,0-.563.02-.971.02-.409.019-.836.039-1.186.039-.215,0-.33-.059-.33-.178,0-.076.059-.176.272-.176a2.45,2.45,0,0,0,.6-.059c.35-.079.448-.393.506-.884.078-.706.078-2.022.078-3.552Z" fill="#0d2855"/>
      <path id="Path_14" data-name="Path 14" d="M24.809,77.518c0-1.645,0-1.95-.022-2.294-.021-.368-.106-.542-.46-.619a2.213,2.213,0,0,0-.419-.033c-.117,0-.182-.019-.182-.1s.076-.1.237-.1c.569,0,1.245.031,1.544.031.439,0,1.061-.031,1.556-.031A2.6,2.6,0,0,1,29.056,75a1.9,1.9,0,0,1,.535,1.287,2.535,2.535,0,0,1-2.637,2.62,1.546,1.546,0,0,1-.224-.011c-.054-.011-.13-.022-.13-.1s.076-.118.3-.118a1.7,1.7,0,0,0,1.438-1.785,2.1,2.1,0,0,0-.632-1.625,1.582,1.582,0,0,0-1.073-.421,1.475,1.475,0,0,0-.417.044c-.054.019-.087.086-.087.2v4.33c0,1,0,1.851.054,2.316.033.3.1.542.417.585a4.859,4.859,0,0,0,.547.042c.117,0,.172.033.172.088,0,.074-.085.107-.2.107-.708,0-1.384-.033-1.662-.033-.246,0-.921.033-1.351.033-.139,0-.213-.033-.213-.107,0-.055.042-.088.17-.088a1.836,1.836,0,0,0,.387-.042c.215-.044.269-.283.31-.6.054-.454.054-1.309.054-2.3Z" fill="#8b7f36"/>
      <path id="Path_15" data-name="Path 15" d="M38.653,78.6c.021,0,.054-.011.054-.066v-.195c0-1.394-.011-1.73-.021-2.024-.022-.313-.109-.41-.409-.5a1.8,1.8,0,0,0-.365-.031c-.107,0-.161-.033-.161-.1s.065-.086.2-.086c.5,0,1.169.022,1.417.022.224,0,.847-.022,1.21-.022.141,0,.2.022.2.086s-.063.1-.172.1a1.709,1.709,0,0,0-.278.031c-.248.044-.322.173-.344.5-.021.294-.021.552-.021,1.95v1.622c0,.844,0,1.57.043,1.971.033.259.085.432.376.476a3.325,3.325,0,0,0,.482.033c.1,0,.15.053.15.1,0,.066-.076.1-.193.1-.61,0-1.234-.033-1.49-.033-.215,0-.88.033-1.245.033-.128,0-.2-.033-.2-.1,0-.044.042-.1.15-.1a1.4,1.4,0,0,0,.344-.033c.191-.044.245-.217.278-.487.043-.39.043-1.094.043-1.938v-.7a.058.058,0,0,0-.054-.053H35.092c-.033,0-.063.011-.063.053v.7c0,.844.011,1.548.052,1.949.033.259.086.432.365.476a3.422,3.422,0,0,0,.482.033c.108,0,.15.053.15.1,0,.066-.074.1-.192.1-.612,0-1.266-.033-1.534-.033-.215,0-.836.033-1.212.033-.117,0-.182-.033-.182-.1,0-.044.033-.1.15-.1a1.351,1.351,0,0,0,.332-.033c.193-.044.248-.217.278-.487.044-.39.044-1.116.044-1.96V78.265c0-1.4,0-1.656-.011-1.95-.022-.313-.106-.41-.406-.5a1.877,1.877,0,0,0-.376-.031c-.1,0-.161-.033-.161-.1s.074-.086.2-.086c.5,0,1.125.022,1.382.022.226,0,.88-.022,1.255-.022.129,0,.194.022.194.086s-.054.1-.172.1a1.516,1.516,0,0,0-.269.031c-.256.044-.332.173-.354.5-.019.294-.019.629-.019,2.024v.195c0,.055.03.066.063.066Z" fill="#8b7f36"/>
      <path id="Path_16" data-name="Path 16" d="M45.613,80.234c-.054,0-.066.011-.085.066l-.5,1.243a1.679,1.679,0,0,0-.141.564c0,.162.087.258.376.258H45.4c.119,0,.141.044.141.1,0,.075-.054.1-.152.1-.31,0-.75-.033-1.049-.033-.1,0-.6.033-1.095.033-.117,0-.172-.022-.172-.1a.1.1,0,0,1,.108-.1c.085,0,.192-.011.278-.011.428-.064.588-.347.782-.811L46.707,75.8c.107-.258.18-.368.278-.368.139,0,.182.088.278.294.226.509,1.8,4.232,2.4,5.626.365.835.632.954.8.986a2.47,2.47,0,0,0,.354.031c.085,0,.129.033.129.1s-.054.1-.406.1c-.332,0-1.019,0-1.814-.022-.172-.011-.278-.011-.278-.075s.022-.087.117-.1a.143.143,0,0,0,.087-.2l-.73-1.861a.088.088,0,0,0-.1-.066Zm2.016-.509c.043,0,.054-.022.043-.055l-.891-2.3c-.011-.033-.021-.088-.043-.088s-.041.055-.052.088l-.912,2.294c-.022.044,0,.066.033.066Z" fill="#8b7f36"/>
      <path id="Path_17" data-name="Path 17" d="M54.127,78.264c0-1.4,0-1.655-.011-1.947-.022-.313-.107-.412-.406-.5a1.7,1.7,0,0,0-.376-.033c-.1,0-.161-.033-.161-.1s.074-.086.215-.086c.493,0,1.093.022,1.286.022.322,0,1.18-.022,1.469-.022a3.276,3.276,0,0,1,1.79.39,1.607,1.607,0,0,1,.665,1.265c0,.682-.385,1.289-1.308,2.035.836,1.04,1.5,1.873,2.07,2.447a1.762,1.762,0,0,0,1.008.605.856.856,0,0,0,.226.022.111.111,0,0,1,.117.1c0,.077-.066.1-.183.1h-.9a2.038,2.038,0,0,1-1.03-.184,4.318,4.318,0,0,1-1.286-1.352c-.376-.5-.771-1.116-.891-1.257a.216.216,0,0,0-.171-.064l-.845-.022a.068.068,0,0,0-.076.075v.131c0,.855.011,1.568.054,1.958.03.27.074.443.363.487a3.6,3.6,0,0,0,.463.033.11.11,0,0,1,.117.1c0,.066-.076.1-.193.1-.547,0-1.329-.033-1.469-.033-.182,0-.782.033-1.158.033-.117,0-.182-.033-.182-.1,0-.041.033-.1.15-.1a1.375,1.375,0,0,0,.332-.033c.194-.044.248-.217.278-.487.043-.39.043-1.114.043-1.958Zm1.2.715c0,.1.022.129.085.162a2.532,2.532,0,0,0,.719.086.933.933,0,0,0,.665-.151,1.557,1.557,0,0,0,.612-1.362,1.441,1.441,0,0,0-1.438-1.636,3.42,3.42,0,0,0-.559.033.113.113,0,0,0-.085.13Z" fill="#8b7f36"/>
      <path id="Path_18" data-name="Path 18" d="M63.982,75.678c.022-.151.107-.239.183-.239.1,0,.161.044.289.294l2.531,5.087,2.531-5.153c.076-.151.161-.228.245-.228s.182.1.215.294l.858,5.659c.087.574.171.822.46.91a1.9,1.9,0,0,0,.537.086c.087,0,.15.033.15.087,0,.075-.106.108-.245.108-.237,0-1.577-.033-1.953-.055-.224-.009-.278-.053-.278-.107s.043-.075.106-.1.076-.131.044-.39l-.526-3.973H69.1l-2.025,4.07c-.215.434-.269.52-.376.52s-.226-.184-.376-.465c-.226-.421-.975-1.829-1.082-2.09-.076-.173-.634-1.287-.945-1.925H64.26l-.45,3.55a2.984,2.984,0,0,0-.033.432c0,.173.128.239.291.272a1.531,1.531,0,0,0,.332.042c.085,0,.15.044.15.088,0,.086-.086.107-.226.107-.4,0-.826-.033-1-.033s-.632.033-.932.033c-.1,0-.172-.022-.172-.107,0-.044.052-.088.15-.088a1.834,1.834,0,0,0,.289-.02c.257-.033.344-.4.387-.7Z" fill="#8b7f36"/>
      <path id="Path_19" data-name="Path 19" d="M76.185,80.234c-.054,0-.065.011-.085.066l-.5,1.243a1.675,1.675,0,0,0-.141.564c0,.162.086.258.376.258h.139c.119,0,.141.044.141.1,0,.075-.054.1-.152.1-.31,0-.75-.033-1.049-.033-.1,0-.6.033-1.095.033-.117,0-.172-.022-.172-.1a.1.1,0,0,1,.109-.1c.085,0,.191-.011.278-.011.428-.064.589-.347.782-.811L77.28,75.8c.107-.258.18-.368.278-.368.139,0,.182.088.278.294.226.509,1.8,4.232,2.4,5.626.365.835.632.954.8.986a2.457,2.457,0,0,0,.354.031c.084,0,.128.033.128.1s-.054.1-.407.1c-.332,0-1.019,0-1.814-.022-.172-.011-.278-.011-.278-.075s.021-.087.117-.1a.143.143,0,0,0,.086-.2L78.5,80.3a.088.088,0,0,0-.1-.066Zm2.016-.509c.044,0,.054-.022.044-.055l-.891-2.3c-.011-.033-.022-.088-.044-.088s-.041.055-.052.088l-.913,2.294c-.021.044,0,.066.033.066Z" fill="#8b7f36"/>
      <path id="Path_20" data-name="Path 20" d="M84.85,81.684a3.575,3.575,0,0,1-.076-5.238,4.236,4.236,0,0,1,2.994-.973,9.555,9.555,0,0,1,1.371.1c.354.055.665.118.945.151.107.011.139.055.139.11,0,.074-.022.184-.044.509-.021.3-.021.811-.033,1-.011.129-.041.226-.128.226s-.1-.074-.1-.193a1.3,1.3,0,0,0-.365-.855,2.641,2.641,0,0,0-1.823-.542,2.529,2.529,0,0,0-1.781.52,3,3,0,0,0-.867,2.392,3.052,3.052,0,0,0,2.937,3.223c.836,0,1.3-.064,1.672-.487A1.489,1.489,0,0,0,90.018,81c.022-.141.043-.184.117-.184s.108.088.108.162a8.306,8.306,0,0,1-.2,1.223.321.321,0,0,1-.246.27,5.5,5.5,0,0,1-1.7.206,4.812,4.812,0,0,1-3.239-1" fill="#8b7f36"/>
      <path id="Path_21" data-name="Path 21" d="M94.4,78.264c0-1.4,0-1.655-.011-1.947-.022-.316-.107-.412-.407-.5a1.912,1.912,0,0,0-.376-.031c-.1,0-.161-.033-.161-.1s.074-.086.213-.086c.5,0,1.1.022,1.362.022.3,0,2.391.011,2.574,0a3.84,3.84,0,0,0,.4-.055,1.02,1.02,0,0,1,.15-.044c.052,0,.063.044.063.088a4.23,4.23,0,0,0-.074.594c-.011.1-.033.5-.054.607-.011.042-.033.151-.107.151s-.076-.044-.076-.121a.9.9,0,0,0-.063-.335c-.076-.162-.152-.291-.623-.335-.161-.022-1.286-.041-1.48-.041-.043,0-.063.031-.063.086v2.274c0,.052.009.1.063.1.216,0,1.436,0,1.651-.022a.744.744,0,0,0,.452-.14c.074-.066.107-.118.15-.118s.074.041.074.1-.022.206-.074.671c-.022.184-.044.552-.044.618s-.011.2-.1.2c-.065,0-.087-.031-.087-.074-.011-.1-.011-.218-.033-.335-.052-.184-.172-.325-.526-.358-.171-.022-1.242-.044-1.479-.044-.043,0-.052.044-.052.1v.734c0,.313-.011,1.094,0,1.364.02.627.311.769,1.275.769a2.5,2.5,0,0,0,.89-.121c.235-.107.341-.3.406-.682.022-.1.044-.141.107-.141s.086.118.086.217a6.429,6.429,0,0,1-.128,1.018c-.065.237-.15.237-.5.237-.708,0-1.277-.009-1.738-.031s-.815-.022-1.093-.022c-.109,0-.313.011-.537.011s-.46.022-.654.022c-.119,0-.182-.033-.182-.1,0-.044.033-.1.15-.1a1.386,1.386,0,0,0,.332-.033c.194-.044.248-.218.278-.487.043-.39.043-1.116.043-1.96Z" fill="#8b7f36"/>
      <path id="Path_22" data-name="Path 22" d="M102.318,78.264c0-1.4.011-1.655-.011-1.947-.021-.327-.106-.412-.408-.5a1.837,1.837,0,0,0-.363-.031c-.108,0-.161-.033-.161-.1s.063-.086.2-.086c.5,0,1.138.022,1.416.022.235,0,.869-.022,1.212-.022.139,0,.2.022.2.086s-.052.1-.15.1a1.447,1.447,0,0,0-.278.031c-.245.044-.322.173-.343.5-.022.292-.022.55-.022,1.947v1.287c0,1.342.258,1.861.719,2.23a1.8,1.8,0,0,0,1.19.368,1.785,1.785,0,0,0,1.265-.487,2.967,2.967,0,0,0,.547-2.241V78.264c0-1.4-.011-1.655-.022-1.947-.022-.316-.1-.412-.4-.5a1.759,1.759,0,0,0-.341-.031c-.108,0-.163-.033-.163-.1s.065-.086.194-.086c.484,0,1.117.022,1.127.022.107,0,.739-.022,1.1-.022.128,0,.193.022.193.086s-.054.1-.161.1a1.424,1.424,0,0,0-.278.031c-.259.044-.322.173-.344.5-.011.292-.021.55-.021,1.947v.985a3.423,3.423,0,0,1-.9,2.771,2.931,2.931,0,0,1-1.995.66,3.244,3.244,0,0,1-2.155-.627,2.972,2.972,0,0,1-.858-2.436Z" fill="#8b7f36"/>
      <path id="Path_23" data-name="Path 23" d="M114.275,76.165l-1.406.033c-.545.011-.771.074-.91.281a1.059,1.059,0,0,0-.161.313c-.022.077-.043.121-.106.121s-.087-.055-.087-.153c0-.151.182-1.037.2-1.114.021-.118.052-.173.106-.173.076,0,.172.076.409.107a8.649,8.649,0,0,0,.943.044h3.828a4.054,4.054,0,0,0,.643-.044c.15-.02.226-.041.259-.041.063,0,.074.052.074.195,0,.193-.021.875-.021,1.114-.009.1-.031.151-.085.151-.076,0-.1-.044-.107-.184l-.011-.1c-.022-.239-.269-.52-1.117-.531l-1.19-.022v3.723c0,.844.011,1.57.054,1.969.033.261.087.434.365.478a3.783,3.783,0,0,0,.482.031c.109,0,.15.055.15.1,0,.064-.074.1-.182.1-.621,0-1.254-.033-1.523-.033-.213,0-.856.033-1.232.033-.119,0-.182-.033-.182-.1,0-.044.033-.1.15-.1a1.43,1.43,0,0,0,.332-.031c.193-.044.248-.217.278-.489.044-.388.044-1.114.044-1.958Z" fill="#8b7f36"/>
      <path id="Path_24" data-name="Path 24" d="M121.953,78.264c0-1.4,0-1.655-.011-1.947-.021-.316-.117-.423-.321-.489a1.263,1.263,0,0,0-.344-.042c-.1,0-.15-.022-.15-.109,0-.053.074-.075.226-.075.352,0,1,.022,1.264.022.237,0,.847-.022,1.212-.022.117,0,.193.022.193.075,0,.088-.054.109-.152.109a1.466,1.466,0,0,0-.278.031c-.256.044-.332.173-.354.5-.021.292-.021.55-.021,1.947v1.623c0,.888,0,1.624.043,2.013.033.25.1.39.376.434a3.5,3.5,0,0,0,.482.033c.106,0,.15.052.15.1,0,.066-.074.1-.182.1-.621,0-1.264-.033-1.523-.033-.213,0-.858.033-1.232.033-.119,0-.182-.033-.182-.1,0-.044.033-.1.15-.1a1.39,1.39,0,0,0,.332-.033c.193-.044.245-.173.278-.443.044-.38.044-1.116.044-2Z" fill="#8b7f36"/>
      <path id="Path_25" data-name="Path 25" d="M128.505,81.684a3.575,3.575,0,0,1-.076-5.238,4.235,4.235,0,0,1,2.993-.973,9.549,9.549,0,0,1,1.371.1c.354.055.665.118.945.151.106.011.139.055.139.11,0,.074-.022.184-.043.509-.022.3-.022.811-.033,1-.011.129-.042.226-.129.226s-.1-.074-.1-.193a1.3,1.3,0,0,0-.365-.855,2.645,2.645,0,0,0-1.823-.542,2.53,2.53,0,0,0-1.781.52,3.006,3.006,0,0,0-.869,2.392,3.054,3.054,0,0,0,2.939,3.223c.836,0,1.3-.064,1.673-.487a1.494,1.494,0,0,0,.321-.616c.022-.141.044-.184.117-.184s.109.088.109.162a8.319,8.319,0,0,1-.2,1.223.317.317,0,0,1-.248.27,5.479,5.479,0,0,1-1.7.206,4.813,4.813,0,0,1-3.239-1" fill="#8b7f36"/>
      <path id="Path_26" data-name="Path 26" d="M138.467,80.234c-.054,0-.065.011-.086.066l-.5,1.243a1.679,1.679,0,0,0-.141.564c0,.162.087.258.376.258h.139c.119,0,.139.044.139.1,0,.075-.052.1-.15.1-.311,0-.749-.033-1.049-.033-.1,0-.6.033-1.1.033-.117,0-.171-.022-.171-.1a.094.094,0,0,1,.106-.1c.087,0,.194-.011.28-.011.428-.064.589-.347.782-.811L139.56,75.8c.109-.258.182-.368.28-.368.139,0,.182.088.278.294.226.509,1.8,4.232,2.4,5.626.365.835.632.954.8.986a2.47,2.47,0,0,0,.354.031c.085,0,.128.033.128.1s-.054.1-.406.1c-.334,0-1.019,0-1.814-.022-.171-.011-.278-.011-.278-.075s.022-.087.117-.1a.143.143,0,0,0,.087-.2l-.73-1.861a.089.089,0,0,0-.1-.066Zm2.016-.509c.043,0,.054-.022.043-.055l-.891-2.3c-.011-.033-.021-.088-.043-.088s-.044.055-.052.088l-.912,2.294c-.022.044,0,.066.033.066Z" fill="#8b7f36"/>
      <path id="Path_27" data-name="Path 27" d="M148.247,79.888c0,1.18,0,1.765.2,1.938.161.14.525.193,1.253.193.5,0,.869-.011,1.106-.258a1.12,1.12,0,0,0,.235-.553c.011-.085.033-.14.109-.14s.084.1.084.206a7.3,7.3,0,0,1-.139,1.061c-.065.2-.107.248-.6.248-.676,0-1.223-.011-1.695-.033s-.869-.022-1.256-.022c-.106,0-.31.011-.536.011s-.461.022-.654.022c-.117,0-.182-.033-.182-.1,0-.044.033-.1.15-.1a1.536,1.536,0,0,0,.334-.031c.191-.044.245-.218.278-.489.044-.388.044-1.113.044-1.958V78.265c0-1.4,0-1.658-.011-1.949-.022-.314-.108-.41-.408-.5a1.261,1.261,0,0,0-.311-.033c-.106,0-.161-.033-.161-.1s.065-.088.2-.088c.438,0,1.04.022,1.3.022.226,0,1-.022,1.362-.022.139,0,.2.022.2.088s-.054.1-.172.1a2.076,2.076,0,0,0-.365.033c-.258.044-.332.173-.354.5-.021.291-.021.552-.021,1.949Z" fill="#8b7f36"/>
      <path id="Path_28" data-name="Path 28" d="M154.531,82.442c-.15-.066-.182-.107-.182-.313,0-.5.043-1.072.054-1.223s.042-.237.117-.237.1.086.1.151a1.707,1.707,0,0,0,.084.475,1.456,1.456,0,0,0,1.5.908,1.186,1.186,0,0,0,1.308-1.168c0-.4-.1-.8-.932-1.3l-.547-.325c-1.114-.66-1.48-1.278-1.48-2.09,0-1.125,1.071-1.851,2.381-1.851a5.634,5.634,0,0,1,1.34.151c.085.022.129.055.129.121,0,.118-.033.377-.033,1.1,0,.195-.044.291-.117.291s-.1-.053-.1-.162a1.039,1.039,0,0,0-.245-.605,1.263,1.263,0,0,0-1.051-.432c-.675,0-1.286.355-1.286.984,0,.41.15.734,1,1.21l.387.217c1.242.693,1.629,1.4,1.629,2.23a1.972,1.972,0,0,1-.945,1.721,2.729,2.729,0,0,1-1.575.379,3.976,3.976,0,0,1-1.534-.239" fill="#8b7f36"/>
      <path id="Path_29" data-name="Path 29" d="M3.576,49.216c24.573-10.277,51.941-15.971,77.8-18.964a490.892,490.892,0,0,1,103.2-.5s-120.819.131-181,19.468" opacity="0.49" fill="url(#linear-gradient-2)" style="mix-blend-mode: multiply;isolation: isolate"/>
      <path id="Path_30" data-name="Path 30" d="M26.609,49.216s16.413-40.39,52.4-40.535c26.343,0,51.392,30.219,77.3,30.219,18.138,0,18.424-25.134,18.424-25.134S180.064,46.6,147.243,46.6c-23.465,0-41.746-26.732-76.3-26.732-25.765,0-44.335,29.349-44.335,29.349" fill="url(#linear-gradient-3)"/>
    </g>
    <g id="Group_2" data-name="Group 2" opacity="0.71" style="mix-blend-mode: multiply;isolation: isolate">
      <path id="Path_31" data-name="Path 31" d="M29.919,42.574c-.434.775-.826,1.5-1.173,2.167,0,0,.491.007,1.092-.015.6-.778,1.289-1.631,2.05-2.539Z" fill="url(#radial-gradient)"/>
      <path id="Path_32" data-name="Path 32" d="M34.9,38.776q.869-.937,1.82-1.9c-.214-1.366-.676-3.169-1.584-2.51-1.32,1.845-2.484,3.625-3.493,5.273Z" fill="url(#radial-gradient-2)"/>
    </g>
  </g>
</svg>
